<?xml version="1.0" standalone="no"?><!DOCTYPE svg PUBLIC "-//W3C//DTD SVG 1.1//EN" "http://www.w3.org/Graphics/SVG/1.1/DTD/svg11.dtd"><svg t="1638007367572" class="icon" viewBox="0 0 1024 1024" version="1.1" xmlns="http://www.w3.org/2000/svg" p-id="3758" width="28" height="28" xmlns:xlink="http://www.w3.org/1999/xlink"><defs><style type="text/css"></style></defs><path d="M711.56622238 473.7706665c-49.94844469-91.24977774-148.36622222-70.99733335-175.21777777-50.28977761-18.88711119 14.4497779-36.75022214 12.06044447-56.54755588 0-31.17511111-19.11466646-133.68888877-38.22933338-175.10399997 50.40355549-49.83466666 106.72355573 7.5093333 318.23644475 117.64622234 318.23644447 0 0 27.53422237 6.25777776 72.70399994-22.98311111 8.07822224-5.23377782 18.54577779-4.7786667 26.05511117 0 45.28355556 29.01333338 82.03377789 22.98311135 82.0337779 22.9831112 90.68088886-0.11377779 165.09155562-214.58488884 108.43022227-318.35022225z" fill="#E23030" p-id="3759"></path><path d="M508.92799997 427.12177779l0-73.50044474" fill="#20B573" p-id="3760"></path><path d="M601.99822252 250.9937782s-116.62222194-9.55733348-91.36355571 114.91555514c0 0 107.97511113 18.77333332 91.36355571-114.91555514z" fill="#2ECC71" p-id="3761"></path><path d="M728.63288887 464.55466662c-37.09155569-67.81155548-96.02844439-77.93777779-127.88622214-77.93777752-27.19288886 0-54.95466677 7.39555549-72.47644449 19.11466641l0-19.56977791c18.31822223-0.68266652 48.12799999-5.91644443 69.74577773-30.37866647 21.27644433-24.00711101 29.12711127-59.96088883 23.21066669-106.95111119-1.13777779-8.98844389-8.53333332-16.04266669-17.6355555-16.8391111 0 0-2.61688906-0.22755545-7.1680001-0.22755529-17.40800016 0-60.87111113 3.5271111-87.72266674 36.29511095-17.97688893 21.95911099-24.34844423 51.88266673-19.1146665 88.97422209l0 49.83466681c-14.33600004-8.76088876-43.12177779-18.77333332-77.25511121-18.77333343-57.344 0-101.83111075 27.53422237-125.15555534 77.59644446-34.70222226 74.18311137-22.52799983 198.08711118 27.19288874 276.02488885 28.5582224 44.82844443 65.30844445 68.83555532 106.38222223 69.51822233 1.93422229 0.34133334 4.89244457 0.56888861 8.76088886 0.5688886 13.08444433 0 40.27733332-3.41333337 76.11733347-26.62399987 2.1617778-1.36533337 3.98222206-0.68266652 5.11999984 7e-8 36.06755543 23.09688884 67.92533334 26.62400003 83.74044445 26.6239998 4.66488866 0 8.19200002-0.34133334 10.24000014-0.5688886 36.18133345-0.68266652 71.45244427-26.85155555 99.44177769-73.95555563 44.37333338-74.97955552 65.64977779-197.40444427 24.46222218-272.72533336zM538.73777781 292.52266663c12.17422228-14.90488905 32.08533337-19.79733331 45.624889-21.39022235 1.02400002 26.62400003-4.09599995 46.42133331-15.24622244 59.05066664-11.71911099 13.19822236-28.5582224 16.83911115-41.75644444 17.40800014-2.84444447-24.00711101 1.02400002-42.55288885 11.37777788-55.06844443z m132.09599997 424.96000006c-20.82133338 35.04355548-45.39733335 55.06844444-67.47022228 55.06844421-0.9102222 0-2.04799973 0.11377779-2.95822193 0.22755576-0.56888861 0.11377779-2.61688906 0.34133334-5.91644471 0.34133333-11.6053333 0-35.04355548-2.61688906-62.80533338-20.48-13.88088893-8.87466665-33.10933323-8.98844389-46.9902223 0-28.5582224 18.43200003-48.01422227 20.48-55.06844437 20.48-1.4791111 0-2.61688906-0.11377779-2.84444437-0.11377819-1.36533337-0.34133334-2.84444447-0.45511114-4.32355554-0.4551109-35.15733323 0-60.41599986-28.10311114-75.43466686-51.54133271-42.66666674-67.01511134-54.0444445-176.35555557-24.80355554-238.93333381 21.39022219-45.73866645 60.87111113-55.29599995 90.1120005-55.29599994 24.57599995 0 46.99022238 6.8266665 57.45777752 13.31200003 28.8995555 17.74933337 54.84088906 16.95288885 78.39288893-1.13777759 7.05422217-5.46133335 26.96533329-13.53955552 52.56533328-13.53955582 28.44444437 0 67.81155548 10.01244432 93.98044437 57.79911109 34.13333329 62.23644446 14.10844448 170.09777776-23.89333332 234.26844454z" fill="#211F1E" p-id="3762"></path><path d="M666.51022211 577.99111134c-5.23377782 0-9.55733348-4.2097777-9.67111082-9.55733355-0.45511114-38.11555562-10.01244432-64.17066667-28.33066661-77.59644448-23.21066667-16.95288883-53.36177773-8.07822224-53.58933355-7.96444458-5.12000002 1.5928889-10.46755571-1.36533337-12.06044447-6.48533317-1.5928889-5.12000002 1.36533337-10.46755571 6.48533334-12.06044443 1.5928889-0.45511114 39.82222226-11.71911099 70.65600001 10.9226665 23.43822215 17.18044447 35.72622223 48.46933335 36.2951111 92.95644465 0 5.23377782-4.32355555 9.67111115-9.78488864 9.78488861 0.11377779 0 0.11377779 0 0 0z" fill="#FFFFFF" p-id="3763"></path></svg>